<svg xmlns="http://www.w3.org/2000/svg" width="11.522" height="11.039" viewBox="0 0 11.522 11.039">
  <path id="star" d="M11.271,6.05a.826.826,0,0,0-.458-1.409l-2.79-.405a.364.364,0,0,1-.275-.2L6.5,1.508a.826.826,0,0,0-1.482,0L3.772,4.035a.365.365,0,0,1-.275.2L.707,4.64A.826.826,0,0,0,.249,6.05L2.268,8.017a.365.365,0,0,1,.105.323L1.9,11.119a.809.809,0,0,0,.18.67.835.835,0,0,0,1.019.2l2.495-1.312a.373.373,0,0,1,.34,0l2.5,1.312a.818.818,0,0,0,.384.1.829.829,0,0,0,.634-.3.809.809,0,0,0,.18-.67L9.148,8.34a.365.365,0,0,1,.105-.323Z" transform="translate(0.001 -1.047)" fill="#e2e2e2"/>
</svg>
