<svg xmlns="http://www.w3.org/2000/svg" width="16" height="9.875" viewBox="0 0 16 9.875">
  <g id="up-arrow_1_" data-name="up-arrow (1)" transform="translate(0.001 -97.996)">
    <g id="Group_181" data-name="Group 181" transform="translate(-0.001 97.996)">
      <path id="Path_85" data-name="Path 85" d="M15.451,104.67a.625.625,0,0,0-.884.884.625.625,0,0,1-.442,1.067H1.874a.625.625,0,0,1-.442-1.067l6.126-6.126a.625.625,0,0,1,.883,0l4.023,4.04a.625.625,0,1,0,.886-.882L9.325,98.545a1.877,1.877,0,0,0-2.652,0L.548,104.67a1.875,1.875,0,0,0,1.326,3.2H14.125a1.875,1.875,0,0,0,1.326-3.2Z" transform="translate(0.001 -97.996)" fill="#ff8e0a"/>
    </g>
  </g>
</svg>
